# Blender v2.79 (sub 0) OBJ File: ''
# www.blender.org
mtllib bear.mtl
o Plane
v -0.008202 1.348768 -4.054229
v -0.008201 -0.375624 -3.954432
v -0.008202 2.540542 -2.567085
v -0.008202 -0.851100 -2.115740
v -0.217673 -0.757890 -1.178147
v -0.008202 2.655360 -1.820373
v -0.008201 0.492648 -4.450045
v -0.008201 -0.049454 -4.503310
v -0.008202 -0.789026 -0.222254
v -0.008202 2.791224 -1.167831
v -0.008202 -0.434938 0.916599
v 0.056991 2.605676 0.242497
v -0.008202 -0.266920 1.556792
v -0.008202 2.774741 0.887427
v -0.008202 0.241339 2.110980
v -0.008202 2.519292 1.639429
v -0.008202 0.019749 3.168400
v -0.008202 2.488070 2.267419
v -0.008202 0.030871 3.977913
v -0.008202 2.729759 2.932637
v -0.008202 0.315271 4.371171
v -0.008202 2.002941 3.761301
v -1.020445 1.348768 -4.054229
v -1.020445 -0.375624 -3.954432
v -1.020445 2.540542 -2.567085
v -1.020445 -0.851100 -2.115740
v -0.839796 -0.734941 -1.181059
v -1.020446 2.655360 -1.820373
v -1.020445 0.492648 -4.450045
v -1.020445 -0.049454 -4.503310
v -1.020445 -0.789026 -0.222254
v -1.020446 2.791224 -1.167831
v -1.020445 -1.425087 -3.605103
v -1.085639 2.605676 0.242497
v -1.020446 -0.266920 1.556792
v -1.020446 2.774741 0.887427
v -1.415059 -0.107964 2.422299
v -1.020446 2.519292 1.639429
v -1.020446 0.019749 3.168400
v -1.020446 2.488070 2.267419
v -1.020446 0.030871 3.977913
v -1.020446 2.729759 2.932637
v -1.020446 0.294366 4.350267
v -1.171779 2.012229 3.804337
v -0.514324 2.774741 0.887427
v -0.514324 2.519292 1.639429
v -0.514324 -0.434938 0.916599
v -0.514324 -0.789026 -0.222254
v -0.514324 0.315271 4.371171
v -0.514324 0.030871 3.977913
v -0.514323 -0.049454 -4.503310
v -0.514323 0.492648 -4.450045
v -0.514323 1.348768 -4.054229
v -0.514324 2.540542 -2.567085
v -0.514324 2.791224 -1.167831
v -0.514324 2.540483 0.242497
v -0.514324 2.729759 2.932637
v -0.593152 2.369079 3.467215
v -0.514324 0.019749 3.168400
v -0.428606 -0.300179 2.419247
v -0.514323 -0.375624 -3.954432
v -0.514324 2.488070 2.267419
v -0.514323 -0.851100 -2.115740
v -0.514324 -0.266920 1.556792
v -0.514324 -0.677478 -1.180668
v -0.514324 2.655360 -1.820373
v -1.020446 2.685148 -0.361562
v -1.020445 -0.670619 0.158579
v -0.514324 -0.673895 0.148041
v -1.020445 -0.808809 -2.279280
v -0.514323 -0.813061 -2.262839
v -1.020445 -1.527149 -2.682502
v -0.514323 -1.425087 -3.605103
v -0.514323 -1.531400 -2.666062
v -1.021651 -2.412782 -3.481134
v -1.021651 -1.942904 -2.678942
v -0.515529 -2.412782 -3.481134
v -0.515529 -1.947156 -2.662501
v -1.024364 -2.612666 -2.221885
v -1.024364 -2.233095 -1.871225
v -0.518242 -2.612666 -2.221885
v -0.518242 -2.237346 -1.854784
v -1.001944 -1.577431 0.210411
v -1.001945 -1.565059 1.187194
v -0.495823 -1.565059 1.187194
v -0.495823 -1.552465 1.239350
v -0.495823 -1.580707 0.199874
v -0.998827 -2.403499 0.510412
v -0.998828 -1.927499 1.192364
v -0.492706 -1.927499 1.192364
v -0.492706 -1.914905 1.244520
v -0.492706 -2.406776 0.499875
v -1.008073 -2.497634 1.792988
v -1.008073 -2.178900 1.737001
v -0.501952 -2.178900 1.737001
v -0.501952 -2.166305 1.789157
v -0.501951 -2.500911 1.782451
v -0.008202 0.486572 -4.004331
v -0.008202 0.844721 -2.341413
v -0.321130 0.832558 -1.495612
v -0.008201 0.221597 -4.476677
v -0.008202 1.001099 -0.695042
v -1.501173 0.483645 -4.349781
v -1.020445 0.221597 -4.476677
v -0.514323 0.221597 -4.476677
v -1.514965 0.876958 -2.685860
v -1.519714 0.836718 -1.754555
v -1.534703 1.093191 -0.940776
v -1.576453 1.250302 -0.036869
v -0.008202 1.253910 1.222109
v -0.008202 1.380316 1.875204
v -0.008202 1.253910 2.717909
v -0.008202 1.380315 3.455275
v -0.008202 1.159106 4.066236
v -1.518796 1.340327 1.466876
v -1.514500 1.468973 2.143081
v -1.020446 1.253910 2.717909
v -1.795303 1.304355 3.205969
v -1.020446 1.138202 4.118497
v -0.514324 1.159106 4.066236
v -0.514324 0.741793 4.217040
v -0.008202 0.678404 4.429169
v -0.008202 1.280321 4.022433
v -0.514324 1.262085 4.029023
v -1.020446 3.060209 2.812577
v -1.020446 2.818520 2.147359
v -0.514324 3.060209 2.812577
v -0.514324 2.818520 2.147359
v -0.307426 0.743608 4.216384
v -0.178712 1.274177 4.024653
v -0.008202 0.617923 4.261803
v -0.008202 1.219587 4.233603
v -0.008202 1.340802 4.189800
v -0.178712 1.334658 4.192020
v -0.307426 0.804089 4.383750
v -0.008202 0.694417 4.473481
v -0.008202 1.235600 4.277915
v -0.008202 1.356815 4.234111
v -0.178712 1.350671 4.236331
v -0.307426 0.820102 4.428062
v 0.008202 1.348768 -4.054229
v 0.008201 -0.375624 -3.954432
v 0.008202 2.540542 -2.567085
v 0.008202 -0.851100 -2.115740
v 0.217673 -0.757890 -1.178147
v 0.008202 2.655360 -1.820373
v 0.008201 0.492648 -4.450045
v 0.008201 -0.049454 -4.503310
v 0.008202 -0.789026 -0.222254
v 0.008202 2.791224 -1.167831
v 0.008202 -0.434938 0.916599
v -0.056991 2.605676 0.242497
v 0.008202 -0.266920 1.556792
v 0.008202 2.774741 0.887427
v 0.008202 0.241339 2.110980
v 0.008202 2.519292 1.639429
v 0.008202 0.019749 3.168400
v 0.008202 2.488070 2.267419
v 0.008202 0.030871 3.977913
v 0.008202 2.729759 2.932637
v 0.008202 0.315271 4.371171
v 0.008202 2.002941 3.761301
v 1.020445 1.348768 -4.054229
v 1.020445 -0.375624 -3.954432
v 1.020445 2.540542 -2.567085
v 1.020445 -0.851100 -2.115740
v 0.839796 -0.734941 -1.181059
v 1.020446 2.655360 -1.820373
v 1.020445 0.492648 -4.450045
v 1.020445 -0.049454 -4.503310
v 1.020445 -0.789026 -0.222254
v 1.020446 2.791224 -1.167831
v 1.020445 -1.425087 -3.605103
v 1.085639 2.605676 0.242497
v 1.020446 -0.266920 1.556792
v 1.020446 2.774741 0.887427
v 1.415059 -0.107964 2.422299
v 1.020446 2.519292 1.639429
v 1.020446 0.019749 3.168400
v 1.020446 2.488070 2.267419
v 1.020446 0.030871 3.977913
v 1.020446 2.729759 2.932637
v 1.020446 0.294366 4.350267
v 1.171779 2.012229 3.804337
v 0.514324 2.774741 0.887427
v 0.514324 2.519292 1.639429
v 0.514324 -0.434938 0.916599
v 0.514324 -0.789026 -0.222254
v 0.514324 0.315271 4.371171
v 0.514324 0.030871 3.977913
v 0.514323 -0.049454 -4.503310
v 0.514323 0.492648 -4.450045
v 0.514323 1.348768 -4.054229
v 0.514324 2.540542 -2.567085
v 0.514324 2.791224 -1.167831
v 0.514324 2.540483 0.242497
v 0.514324 2.729759 2.932637
v 0.593152 2.369079 3.467215
v 0.514324 0.019749 3.168400
v 0.428606 -0.300179 2.419247
v 0.514323 -0.375624 -3.954432
v 0.514324 2.488070 2.267419
v 0.514323 -0.851100 -2.115740
v 0.514324 -0.266920 1.556792
v 0.514324 -0.677478 -1.180668
v 0.514324 2.655360 -1.820373
v 1.020446 2.685148 -0.361562
v 1.020445 -0.670619 0.158579
v 0.514324 -0.673895 0.148041
v 1.020445 -0.808809 -2.279280
v 0.514323 -0.813061 -2.262839
v 1.020445 -1.527149 -2.682502
v 0.514323 -1.425087 -3.605103
v 0.514323 -1.531400 -2.666062
v 1.021651 -2.412782 -3.481134
v 1.021651 -1.942904 -2.678942
v 0.515529 -2.412782 -3.481134
v 0.515529 -1.947156 -2.662501
v 1.024364 -2.612666 -2.221885
v 1.024364 -2.233095 -1.871225
v 0.518242 -2.612666 -2.221885
v 0.518242 -2.237346 -1.854784
v 1.001944 -1.577431 0.210411
v 1.001945 -1.565059 1.187194
v 0.495823 -1.565059 1.187194
v 0.495823 -1.552465 1.239350
v 0.495823 -1.580707 0.199874
v 0.998827 -2.403499 0.510412
v 0.998828 -1.927499 1.192364
v 0.492706 -1.927499 1.192364
v 0.492706 -1.914905 1.244520
v 0.492706 -2.406776 0.499875
v 1.008073 -2.497634 1.792988
v 1.008073 -2.178900 1.737001
v 0.501952 -2.178900 1.737001
v 0.501952 -2.166305 1.789157
v 0.501951 -2.500911 1.782451
v 0.008202 0.486572 -4.004331
v 0.008202 0.844721 -2.341413
v 0.321130 0.832558 -1.495612
v 0.008201 0.221597 -4.476677
v 0.008202 1.001099 -0.695042
v 1.501173 0.483645 -4.349781
v 1.020445 0.221597 -4.476677
v 0.514323 0.221597 -4.476677
v 1.514965 0.876958 -2.685860
v 1.519714 0.836718 -1.754555
v 1.534703 1.093191 -0.940776
v 1.576453 1.250302 -0.036869
v 0.008202 1.253910 1.222109
v 0.008202 1.380316 1.875204
v 0.008202 1.253910 2.717909
v 0.008202 1.380315 3.455275
v 0.008202 1.159106 4.066236
v 1.518796 1.340327 1.466876
v 1.514500 1.468973 2.143081
v 1.020446 1.253910 2.717909
v 1.795303 1.304355 3.205969
v 1.020446 1.138202 4.118497
v 0.514324 1.159106 4.066236
v 0.514324 0.741793 4.217040
v 0.008202 0.678404 4.429169
v 0.008202 1.280321 4.022433
v 0.514324 1.262085 4.029023
v 1.020446 3.060209 2.812577
v 1.020446 2.818520 2.147359
v 0.514324 3.060209 2.812577
v 0.514324 2.818520 2.147359
v 0.307426 0.743608 4.216384
v 0.178712 1.274177 4.024653
v 0.008202 0.617923 4.261803
v 0.008202 1.219587 4.233603
v 0.008202 1.340802 4.189800
v 0.178712 1.334658 4.192020
v 0.307426 0.804089 4.383750
v 0.008202 0.694417 4.473481
v 0.008202 1.235600 4.277915
v 0.008202 1.356815 4.234111
v 0.178712 1.350671 4.236331
v 0.307426 0.820102 4.428062
vn 1.0000 0.0000 0.0000
vn 0.9578 0.0760 0.2771
vn 0.9586 -0.0366 -0.2822
vn -0.0218 -0.3413 -0.9397
vn -0.9998 -0.0172 0.0030
vn -0.9039 0.3806 -0.1954
vn -0.1979 0.3440 -0.9179
vn -0.9356 -0.3473 -0.0636
vn -0.9492 -0.3021 0.0881
vn -0.9475 0.3180 -0.0326
vn -0.9575 -0.2035 -0.2045
vn -0.8205 0.1163 0.5597
vn -0.7742 -0.4541 -0.4408
vn -0.8523 -0.0659 0.5190
vn 0.0000 0.9469 0.3216
vn -0.0000 -0.9549 0.2969
vn 0.0048 -0.8132 0.5820
vn 0.0000 0.0978 -0.9952
vn 0.0000 0.7803 -0.6254
vn 0.0618 0.9860 0.1548
vn -0.0762 0.7973 0.5988
vn 0.0000 0.4197 -0.9077
vn -0.1209 -0.9438 0.3075
vn 0.0000 -0.8597 -0.5109
vn 0.0000 0.9988 0.0497
vn -0.0324 0.0087 0.9994
vn 0.0576 0.9520 -0.3006
vn 0.0688 -0.9945 -0.0794
vn 0.0000 -0.9999 0.0137
vn 0.0000 0.9790 -0.2038
vn 0.0000 0.3415 0.9399
vn 0.0681 -0.9869 0.1464
vn -0.1275 -0.9906 0.0493
vn 0.1643 0.4118 0.8963
vn 0.0000 0.9884 -0.1520
vn 0.5477 -0.8027 0.2360
vn -0.0992 -0.9866 0.1295
vn 0.0000 0.9399 -0.3415
vn -0.0993 -0.9931 -0.0632
vn -0.0576 0.9520 -0.3006
vn 0.0000 -0.9672 0.2539
vn 0.0000 -0.9682 -0.2504
vn 0.5208 -0.8507 0.0710
vn 0.0921 0.7758 0.6242
vn -0.0597 0.9863 0.1539
vn 0.0000 -0.8103 0.5860
vn -0.9575 -0.2807 0.0668
vn -0.0324 -0.4892 0.8716
vn -0.0212 -0.0575 -0.9981
vn -1.0000 0.0000 -0.0000
vn 0.0000 -0.3158 -0.9488
vn 0.0000 -0.9876 -0.1568
vn 0.0000 -0.1245 -0.9922
vn 1.0000 -0.0017 0.0003
vn -1.0000 0.0017 -0.0004
vn -0.0147 -0.6890 0.7246
vn 1.0000 -0.0028 0.0020
vn -1.0000 0.0027 -0.0020
vn -0.0031 0.9411 0.3381
vn 0.9998 -0.0212 -0.0002
vn 0.0000 -0.2738 0.9618
vn 0.9998 0.0178 -0.0026
vn 0.9999 0.0154 -0.0041
vn 0.9999 -0.0078 0.0086
vn -1.0000 -0.0086 0.0021
vn -1.0000 -0.0049 0.0014
vn 1.0000 0.0049 -0.0014
vn 0.0000 0.0143 0.9999
vn -0.0421 0.1562 0.9868
vn 0.0000 0.9079 0.4191
vn -0.0080 -0.9973 -0.0733
vn -0.9997 0.0241 -0.0058
vn -0.9999 0.0069 -0.0088
vn -0.6964 -0.4724 -0.5402
vn -0.9329 -0.3601 -0.0082
vn 0.9750 -0.1250 -0.1838
vn 0.9790 -0.0564 0.1960
vn -0.9639 -0.2651 0.0255
vn -0.9595 0.2697 -0.0820
vn -0.0000 0.3399 0.9405
vn 0.0170 0.3030 0.9528
vn -0.8228 0.3396 0.4557
vn -0.8173 0.0830 -0.5702
vn -0.8370 0.3550 0.4165
vn -0.9224 0.3845 0.0369
vn -0.9614 0.2746 -0.0149
vn -0.9409 0.3387 -0.0015
vn -0.1106 0.4037 0.9082
vn 0.0000 -0.3415 -0.9399
vn -0.4078 -0.8587 0.3103
vn -0.9749 0.2092 -0.0756
vn -0.0383 0.9398 -0.3396
vn -0.9578 0.0760 0.2771
vn -0.9586 -0.0366 -0.2822
vn 0.0218 -0.3413 -0.9397
vn 0.9998 -0.0172 0.0030
vn 0.9039 0.3806 -0.1954
vn 0.1979 0.3440 -0.9179
vn 0.9356 -0.3473 -0.0636
vn 0.9492 -0.3021 0.0881
vn 0.9475 0.3180 -0.0326
vn 0.9575 -0.2035 -0.2045
vn 0.8205 0.1163 0.5597
vn 0.7742 -0.4541 -0.4408
vn 0.8523 -0.0659 0.5190
vn -0.0048 -0.8132 0.5820
vn -0.0618 0.9860 0.1548
vn 0.0762 0.7973 0.5988
vn 0.1209 -0.9438 0.3075
vn 0.0324 0.0087 0.9994
vn -0.0688 -0.9945 -0.0794
vn -0.0681 -0.9869 0.1464
vn 0.1275 -0.9906 0.0493
vn -0.1643 0.4118 0.8963
vn -0.5477 -0.8027 0.2360
vn 0.0992 -0.9866 0.1295
vn 0.0993 -0.9931 -0.0632
vn -0.5208 -0.8507 0.0710
vn -0.0921 0.7758 0.6242
vn 0.0597 0.9863 0.1539
vn 0.9575 -0.2807 0.0668
vn 0.0324 -0.4892 0.8716
vn 0.0212 -0.0575 -0.9981
vn -1.0000 -0.0017 0.0003
vn 1.0000 0.0017 -0.0004
vn 0.0147 -0.6890 0.7246
vn -1.0000 -0.0028 0.0020
vn 1.0000 0.0027 -0.0020
vn 0.0031 0.9411 0.3381
vn -0.9998 -0.0212 -0.0002
vn -0.9998 0.0178 -0.0026
vn -0.9999 0.0154 -0.0041
vn -0.9999 -0.0078 0.0086
vn 1.0000 -0.0086 0.0021
vn 1.0000 -0.0049 0.0014
vn -1.0000 0.0049 -0.0014
vn 0.0421 0.1562 0.9868
vn 0.0080 -0.9973 -0.0733
vn 0.9997 0.0241 -0.0058
vn 0.9999 0.0069 -0.0088
vn 0.6964 -0.4724 -0.5402
vn 0.9329 -0.3601 -0.0082
vn -0.9750 -0.1250 -0.1838
vn -0.9790 -0.0564 0.1960
vn 0.9639 -0.2651 0.0255
vn 0.9595 0.2697 -0.0820
vn -0.0170 0.3030 0.9528
vn 0.8228 0.3396 0.4557
vn 0.8173 0.0830 -0.5702
vn 0.8370 0.3550 0.4165
vn 0.9224 0.3845 0.0369
vn 0.9614 0.2746 -0.0149
vn 0.9409 0.3387 -0.0015
vn 0.1106 0.4037 0.9082
vn 0.4078 -0.8587 0.3103
vn 0.9749 0.2092 -0.0756
vn 0.0383 0.9398 -0.3396
usemtl None
s off
f 98//1 99//1 4//1 2//1
f 99//2 100//2 5//2 4//2
f 98//1 101//1 7//1 1//1
f 100//3 102//3 9//3 5//3
f 83//4 87//4 92//4 88//4
f 35//5 68//5 83//5 84//5
f 110//1 111//1 15//1 13//1
f 111//1 112//1 17//1 15//1
f 112//1 113//1 19//1 17//1
f 113//1 114//1 131//1 21//1 19//1
f 106//6 25//6 23//6 103//6
f 103//7 23//7 29//7 104//7
f 107//8 27//8 31//8 108//8
f 26//9 27//9 107//9 106//9 70//9
f 109//10 67//10 32//10 108//10
f 115//11 35//11 37//11 116//11
f 116//12 37//12 39//12 117//12
f 117//13 39//13 41//13 118//13
f 118//14 41//14 43//14 119//14
f 46//15 45//15 36//15 38//15
f 48//16 69//16 68//16 31//16
f 50//17 49//17 43//17 41//17
f 105//18 51//18 30//18 104//18
f 54//19 53//19 23//19 25//19
f 56//20 55//20 32//20 67//20 34//20
f 58//21 57//21 42//21 44//21
f 53//22 52//22 29//22 23//22
f 60//23 59//23 39//23 37//23
f 51//24 61//24 24//24 30//24
f 62//25 46//25 38//25 40//25
f 61//1 71//1 74//1 73//1
f 74//26 72//26 76//26 78//26
f 45//27 56//27 34//27 36//27
f 65//28 48//28 31//28 27//28
f 59//29 50//29 41//29 39//29
f 55//30 66//30 28//30 32//30
f 42//31 57//31 127//31 125//31
f 63//32 65//32 27//32 26//32
f 64//33 60//33 37//33 35//33
f 120//34 124//34 58//34 44//34 119//34
f 66//35 54//35 25//35 28//35
f 6//35 3//35 54//35 66//35
f 13//36 15//36 60//36 64//36
f 4//37 5//37 65//37 63//37
f 20//38 18//38 62//38 57//38
f 10//30 6//30 66//30 55//30
f 17//29 19//29 50//29 59//29
f 5//39 9//39 48//39 65//39
f 14//40 12//40 56//40 45//40
f 11//41 13//41 64//41 47//41
f 2//42 4//42 63//42 71//42 61//42
f 18//25 16//25 46//25 62//25
f 8//24 2//24 61//24 51//24
f 15//43 17//43 59//43 60//43
f 1//22 7//22 52//22 53//22
f 22//44 20//44 57//44 58//44
f 12//45 10//45 55//45 56//45
f 3//19 1//19 53//19 54//19
f 101//18 8//18 51//18 105//18
f 19//46 21//46 49//46 50//46
f 9//16 11//16 47//16 69//16 48//16
f 16//15 14//15 45//15 46//15
f 68//47 35//47 115//47 109//47
f 71//48 70//48 72//48 74//48
f 70//42 71//42 63//42 26//42
f 68//49 69//49 87//49 83//49
f 70//50 24//50 33//50 72//50
f 24//51 61//51 73//51 33//51
f 75//52 77//52 81//52 79//52
f 33//53 73//53 77//53 75//53
f 73//54 74//54 78//54 77//54
f 72//55 33//55 75//55 76//55
f 81//56 82//56 80//56 79//56
f 77//57 78//57 82//57 81//57
f 76//58 75//58 79//58 80//58
f 78//59 76//59 80//59 82//59
f 12//60 14//60 110//60 102//60 10//60
f 64//61 35//61 84//61 85//61
f 69//62 47//62 86//62 87//62
f 47//63 64//63 85//63 86//63
f 92//64 91//64 96//64 97//64
f 86//65 85//65 90//65 91//65
f 84//66 83//66 88//66 89//66
f 87//67 86//67 91//67 92//67
f 85//68 84//68 89//68 90//68
f 93//69 97//69 96//69 95//69 94//69
f 90//70 89//70 94//70 95//70
f 88//71 92//71 97//71 93//71
f 91//72 90//72 95//72 96//72
f 89//73 88//73 93//73 94//73
f 7//18 101//18 105//18 52//18
f 52//18 105//18 104//18 29//18
f 24//74 103//74 104//74 30//74
f 70//75 106//75 103//75 24//75
f 6//76 10//76 102//76 100//76
f 2//1 8//1 101//1 98//1
f 3//77 6//77 100//77 99//77
f 1//1 3//1 99//1 98//1
f 68//78 109//78 108//78 31//78
f 28//79 107//79 108//79 32//79
f 121//80 129//80 130//80 124//80 120//80
f 49//81 121//81 120//81 119//81 43//81
f 42//82 118//82 119//82 44//82
f 40//83 117//83 118//83 42//83
f 38//84 116//84 117//84 40//84
f 36//85 115//85 116//85 38//85
f 20//1 22//1 123//1 114//1 113//1
f 18//1 20//1 113//1 112//1
f 16//1 18//1 112//1 111//1
f 14//1 16//1 111//1 110//1
f 106//86 107//86 28//86 25//86
f 109//87 115//87 36//87 34//87 67//87
f 102//1 110//1 13//1 11//1 9//1
f 21//80 131//80 129//80 121//80 49//80
f 124//88 130//88 123//88 22//88 58//88
f 127//38 128//38 126//38 125//38
f 62//89 40//89 126//89 128//89
f 57//1 62//1 128//1 127//1
f 40//50 42//50 125//50 126//50
f 129//90 131//90 122//90 135//90
f 134//91 135//91 140//91 139//91
f 130//91 129//91 135//91 134//91
f 123//92 130//92 134//92 133//92
f 114//1 123//1 133//1 132//1
f 131//1 114//1 132//1 122//1
f 139//80 140//80 136//80 137//80 138//80
f 133//92 134//92 139//92 138//92
f 132//1 133//1 138//1 137//1
f 135//90 122//90 136//90 140//90
f 122//1 132//1 137//1 136//1
f 238//50 142//50 144//50 239//50
f 239//93 144//93 145//93 240//93
f 238//50 141//50 147//50 241//50
f 240//94 145//94 149//94 242//94
f 223//95 228//95 232//95 227//95
f 175//96 224//96 223//96 208//96
f 250//50 153//50 155//50 251//50
f 251//50 155//50 157//50 252//50
f 252//50 157//50 159//50 253//50
f 253//50 159//50 161//50 271//50 254//50
f 246//97 243//97 163//97 165//97
f 243//98 244//98 169//98 163//98
f 247//99 248//99 171//99 167//99
f 166//100 210//100 246//100 247//100 167//100
f 249//101 248//101 172//101 207//101
f 255//102 256//102 177//102 175//102
f 256//103 257//103 179//103 177//103
f 257//104 258//104 181//104 179//104
f 258//105 259//105 183//105 181//105
f 186//15 178//15 176//15 185//15
f 188//16 171//16 208//16 209//16
f 190//106 181//106 183//106 189//106
f 245//18 244//18 170//18 191//18
f 194//19 165//19 163//19 193//19
f 196//107 174//107 207//107 172//107 195//107
f 198//108 184//108 182//108 197//108
f 193//22 163//22 169//22 192//22
f 200//109 177//109 179//109 199//109
f 191//24 170//24 164//24 201//24
f 202//25 180//25 178//25 186//25
f 201//50 213//50 214//50 211//50
f 214//110 218//110 216//110 212//110
f 185//40 176//40 174//40 196//40
f 205//111 167//111 171//111 188//111
f 199//29 179//29 181//29 190//29
f 195//30 172//30 168//30 206//30
f 182//31 265//31 267//31 197//31
f 203//112 166//112 167//112 205//112
f 204//113 175//113 177//113 200//113
f 260//114 259//114 184//114 198//114 264//114
f 206//35 168//35 165//35 194//35
f 146//35 206//35 194//35 143//35
f 153//115 204//115 200//115 155//115
f 144//116 203//116 205//116 145//116
f 160//38 197//38 202//38 158//38
f 150//30 195//30 206//30 146//30
f 157//29 199//29 190//29 159//29
f 145//117 205//117 188//117 149//117
f 154//27 185//27 196//27 152//27
f 151//41 187//41 204//41 153//41
f 142//42 201//42 211//42 203//42 144//42
f 158//25 202//25 186//25 156//25
f 148//24 191//24 201//24 142//24
f 155//118 200//118 199//118 157//118
f 141//22 193//22 192//22 147//22
f 162//119 198//119 197//119 160//119
f 152//120 196//120 195//120 150//120
f 143//19 194//19 193//19 141//19
f 241//18 245//18 191//18 148//18
f 159//46 190//46 189//46 161//46
f 149//16 188//16 209//16 187//16 151//16
f 156//15 186//15 185//15 154//15
f 208//121 249//121 255//121 175//121
f 211//122 214//122 212//122 210//122
f 210//42 166//42 203//42 211//42
f 208//123 223//123 227//123 209//123
f 210//1 212//1 173//1 164//1
f 164//51 173//51 213//51 201//51
f 215//52 219//52 221//52 217//52
f 173//53 215//53 217//53 213//53
f 213//124 217//124 218//124 214//124
f 212//125 216//125 215//125 173//125
f 221//126 219//126 220//126 222//126
f 217//127 221//127 222//127 218//127
f 216//128 220//128 219//128 215//128
f 218//129 222//129 220//129 216//129
f 152//130 150//130 242//130 250//130 154//130
f 204//61 225//61 224//61 175//61
f 209//131 227//131 226//131 187//131
f 187//132 226//132 225//132 204//132
f 232//133 237//133 236//133 231//133
f 226//134 231//134 230//134 225//134
f 224//135 229//135 228//135 223//135
f 227//136 232//136 231//136 226//136
f 225//68 230//68 229//68 224//68
f 233//137 234//137 235//137 236//137 237//137
f 230//70 235//70 234//70 229//70
f 228//138 233//138 237//138 232//138
f 231//139 236//139 235//139 230//139
f 229//140 234//140 233//140 228//140
f 147//18 192//18 245//18 241//18
f 192//18 169//18 244//18 245//18
f 164//141 170//141 244//141 243//141
f 210//142 164//142 243//142 246//142
f 146//143 240//143 242//143 150//143
f 142//50 238//50 241//50 148//50
f 143//144 239//144 240//144 146//144
f 141//50 238//50 239//50 143//50
f 208//145 171//145 248//145 249//145
f 168//146 172//146 248//146 247//146
f 261//80 260//80 264//80 270//80 269//80
f 189//147 183//147 259//147 260//147 261//147
f 182//148 184//148 259//148 258//148
f 180//149 182//149 258//149 257//149
f 178//150 180//150 257//150 256//150
f 176//151 178//151 256//151 255//151
f 160//50 253//50 254//50 263//50 162//50
f 158//50 252//50 253//50 160//50
f 156//50 251//50 252//50 158//50
f 154//50 250//50 251//50 156//50
f 246//152 165//152 168//152 247//152
f 249//153 207//153 174//153 176//153 255//153
f 242//50 149//50 151//50 153//50 250//50
f 161//80 189//80 261//80 269//80 271//80
f 264//154 198//154 162//154 263//154 270//154
f 267//38 265//38 266//38 268//38
f 202//89 268//89 266//89 180//89
f 197//50 267//50 268//50 202//50
f 180//1 266//1 265//1 182//1
f 269//155 275//155 262//155 271//155
f 274//156 279//156 280//156 275//156
f 270//156 274//156 275//156 269//156
f 263//157 273//157 274//157 270//157
f 254//50 272//50 273//50 263//50
f 271//50 262//50 272//50 254//50
f 279//80 278//80 277//80 276//80 280//80
f 273//157 278//157 279//157 274//157
f 272//50 277//50 278//50 273//50
f 275//155 280//155 276//155 262//155
f 262//50 276//50 277//50 272//50
